<svg width="69" height="26" viewBox="0 0 69 26" fill="none" xmlns="http://www.w3.org/2000/svg">
<path d="M9.10547 15.5107C9.10547 16.6533 8.69238 17.5498 7.86621 18.2002C7.04004 18.8506 5.90039 19.1758 4.44727 19.1758C2.99414 19.1758 1.80469 18.9502 0.878906 18.499V16.5127C1.46484 16.7881 2.08594 17.0049 2.74219 17.1631C3.4043 17.3213 4.01953 17.4004 4.58789 17.4004C5.41992 17.4004 6.03223 17.2422 6.4248 16.9258C6.82324 16.6094 7.02246 16.1846 7.02246 15.6514C7.02246 15.1709 6.84082 14.7637 6.47754 14.4297C6.11426 14.0957 5.36426 13.7002 4.22754 13.2432C3.05566 12.7686 2.22949 12.2266 1.74902 11.6172C1.26855 11.0078 1.02832 10.2754 1.02832 9.41992C1.02832 8.34766 1.40918 7.50391 2.1709 6.88867C2.93262 6.27344 3.95508 5.96582 5.23828 5.96582C6.46875 5.96582 7.69336 6.23535 8.91211 6.77441L8.24414 8.48828C7.10156 8.00781 6.08203 7.76758 5.18555 7.76758C4.50586 7.76758 3.99023 7.91699 3.63867 8.21582C3.28711 8.50879 3.11133 8.89844 3.11133 9.38477C3.11133 9.71875 3.18164 10.0059 3.32227 10.2461C3.46289 10.4805 3.69434 10.7031 4.0166 10.9141C4.33887 11.125 4.91895 11.4033 5.75684 11.749C6.7002 12.1416 7.3916 12.5078 7.83105 12.8477C8.27051 13.1875 8.59277 13.5713 8.79785 13.999C9.00293 14.4268 9.10547 14.9307 9.10547 15.5107ZM17.4551 19L17.042 17.6465H16.9717C16.5029 18.2383 16.0312 18.6426 15.5566 18.8594C15.082 19.0703 14.4727 19.1758 13.7285 19.1758C12.7734 19.1758 12.0264 18.918 11.4873 18.4023C10.9541 17.8867 10.6875 17.1572 10.6875 16.2139C10.6875 15.2119 11.0596 14.4561 11.8037 13.9463C12.5479 13.4365 13.6816 13.1582 15.2051 13.1113L16.8838 13.0586V12.54C16.8838 11.9189 16.7373 11.4561 16.4443 11.1514C16.1572 10.8408 15.709 10.6855 15.0996 10.6855C14.6016 10.6855 14.124 10.7588 13.667 10.9053C13.21 11.0518 12.7705 11.2246 12.3486 11.4238L11.6807 9.94727C12.208 9.67188 12.7852 9.46387 13.4121 9.32324C14.0391 9.17676 14.6309 9.10352 15.1875 9.10352C16.4238 9.10352 17.3555 9.37305 17.9824 9.91211C18.6152 10.4512 18.9316 11.2979 18.9316 12.4521V19H17.4551ZM14.3789 17.5938C15.1289 17.5938 15.7295 17.3857 16.1807 16.9697C16.6377 16.5479 16.8662 15.959 16.8662 15.2031V14.3594L15.6182 14.4121C14.6455 14.4473 13.9365 14.6113 13.4912 14.9043C13.0518 15.1914 12.832 15.6338 12.832 16.2314C12.832 16.665 12.9609 17.002 13.2188 17.2422C13.4766 17.4766 13.8633 17.5938 14.3789 17.5938ZM27.8965 19L27.4834 17.6465H27.4131C26.9443 18.2383 26.4727 18.6426 25.998 18.8594C25.5234 19.0703 24.9141 19.1758 24.1699 19.1758C23.2148 19.1758 22.4678 18.918 21.9287 18.4023C21.3955 17.8867 21.1289 17.1572 21.1289 16.2139C21.1289 15.2119 21.501 14.4561 22.2451 13.9463C22.9893 13.4365 24.123 13.1582 25.6465 13.1113L27.3252 13.0586V12.54C27.3252 11.9189 27.1787 11.4561 26.8857 11.1514C26.5986 10.8408 26.1504 10.6855 25.541 10.6855C25.043 10.6855 24.5654 10.7588 24.1084 10.9053C23.6514 11.0518 23.2119 11.2246 22.79 11.4238L22.1221 9.94727C22.6494 9.67188 23.2266 9.46387 23.8535 9.32324C24.4805 9.17676 25.0723 9.10352 25.6289 9.10352C26.8652 9.10352 27.7969 9.37305 28.4238 9.91211C29.0566 10.4512 29.373 11.2979 29.373 12.4521V19H27.8965ZM24.8203 17.5938C25.5703 17.5938 26.1709 17.3857 26.6221 16.9697C27.0791 16.5479 27.3076 15.959 27.3076 15.2031V14.3594L26.0596 14.4121C25.0869 14.4473 24.3779 14.6113 23.9326 14.9043C23.4932 15.1914 23.2734 15.6338 23.2734 16.2314C23.2734 16.665 23.4023 17.002 23.6602 17.2422C23.918 17.4766 24.3047 17.5938 24.8203 17.5938ZM39.8848 15.5107C39.8848 16.6533 39.4717 17.5498 38.6455 18.2002C37.8193 18.8506 36.6797 19.1758 35.2266 19.1758C33.7734 19.1758 32.584 18.9502 31.6582 18.499V16.5127C32.2441 16.7881 32.8652 17.0049 33.5215 17.1631C34.1836 17.3213 34.7988 17.4004 35.3672 17.4004C36.1992 17.4004 36.8115 17.2422 37.2041 16.9258C37.6025 16.6094 37.8018 16.1846 37.8018 15.6514C37.8018 15.1709 37.6201 14.7637 37.2568 14.4297C36.8936 14.0957 36.1436 13.7002 35.0068 13.2432C33.835 12.7686 33.0088 12.2266 32.5283 11.6172C32.0479 11.0078 31.8076 10.2754 31.8076 9.41992C31.8076 8.34766 32.1885 7.50391 32.9502 6.88867C33.7119 6.27344 34.7344 5.96582 36.0176 5.96582C37.248 5.96582 38.4727 6.23535 39.6914 6.77441L39.0234 8.48828C37.8809 8.00781 36.8613 7.76758 35.9648 7.76758C35.2852 7.76758 34.7695 7.91699 34.418 8.21582C34.0664 8.50879 33.8906 8.89844 33.8906 9.38477C33.8906 9.71875 33.9609 10.0059 34.1016 10.2461C34.2422 10.4805 34.4736 10.7031 34.7959 10.9141C35.1182 11.125 35.6982 11.4033 36.5361 11.749C37.4795 12.1416 38.1709 12.5078 38.6104 12.8477C39.0498 13.1875 39.3721 13.5713 39.5771 13.999C39.7822 14.4268 39.8848 14.9307 39.8848 15.5107ZM56.8564 19H54.4219L50.3877 13.1816L49.1484 14.1924V19H47.0479V6.15039H49.1484V12.2852C49.7227 11.582 50.2939 10.9053 50.8623 10.2549L54.334 6.15039H56.7246C54.4805 8.78711 52.8721 10.665 51.8994 11.7842L56.8564 19ZM60.4072 19H58.3418V9.2793H60.4072V19ZM58.2188 6.7041C58.2188 6.33496 58.3184 6.05078 58.5176 5.85156C58.7227 5.65234 59.0127 5.55273 59.3877 5.55273C59.751 5.55273 60.0322 5.65234 60.2314 5.85156C60.4365 6.05078 60.5391 6.33496 60.5391 6.7041C60.5391 7.05566 60.4365 7.33398 60.2314 7.53906C60.0322 7.73828 59.751 7.83789 59.3877 7.83789C59.0127 7.83789 58.7227 7.73828 58.5176 7.53906C58.3184 7.33398 58.2188 7.05566 58.2188 6.7041ZM66.9902 17.5059C67.4941 17.5059 67.998 17.4268 68.502 17.2686V18.8242C68.2734 18.9238 67.9775 19.0059 67.6143 19.0703C67.2568 19.1406 66.8848 19.1758 66.498 19.1758C64.541 19.1758 63.5625 18.1445 63.5625 16.082V10.8438H62.2354V9.92969L63.6592 9.17383L64.3623 7.11719H65.6367V9.2793H68.4053V10.8438H65.6367V16.0469C65.6367 16.5449 65.7598 16.9141 66.0059 17.1543C66.2578 17.3887 66.5859 17.5059 66.9902 17.5059Z" fill="#109CF1"/>
</svg>
